<mxfile host="app.diagrams.net" modified="2023-11-18T17:03:13.397Z" agent="Mozilla/5.0 (Windows NT 10.0; Win64; x64) AppleWebKit/537.36 (KHTML, like Gecko) Chrome/119.0.0.0 Safari/537.36" etag="MCmLKYdTRNl0aORfkqMt" version="22.1.3" type="github">
  <diagram name="Trang-1" id="V_ZkCcgVKIEUjsHu4HYp">
    <mxGraphModel dx="1450" dy="1016" grid="0" gridSize="10" guides="1" tooltips="1" connect="1" arrows="1" fold="1" page="0" pageScale="1" pageWidth="1169" pageHeight="827" math="0" shadow="0">
      <root>
        <mxCell id="0" />
        <mxCell id="1" parent="0" />
        <mxCell id="ZbgHCVMx-3XDfBXsdfAD-14" style="edgeStyle=none;curved=1;rounded=0;orthogonalLoop=1;jettySize=auto;html=1;fontSize=12;startSize=8;endSize=8;" edge="1" parent="1" source="ZbgHCVMx-3XDfBXsdfAD-1" target="ZbgHCVMx-3XDfBXsdfAD-5">
          <mxGeometry relative="1" as="geometry" />
        </mxCell>
        <mxCell id="ZbgHCVMx-3XDfBXsdfAD-15" style="edgeStyle=none;curved=1;rounded=0;orthogonalLoop=1;jettySize=auto;html=1;entryX=0;entryY=0.5;entryDx=0;entryDy=0;fontSize=12;startSize=8;endSize=8;" edge="1" parent="1" source="ZbgHCVMx-3XDfBXsdfAD-1" target="ZbgHCVMx-3XDfBXsdfAD-6">
          <mxGeometry relative="1" as="geometry" />
        </mxCell>
        <mxCell id="ZbgHCVMx-3XDfBXsdfAD-16" style="edgeStyle=none;curved=1;rounded=0;orthogonalLoop=1;jettySize=auto;html=1;fontSize=12;startSize=8;endSize=8;" edge="1" parent="1" source="ZbgHCVMx-3XDfBXsdfAD-1" target="ZbgHCVMx-3XDfBXsdfAD-7">
          <mxGeometry relative="1" as="geometry" />
        </mxCell>
        <mxCell id="ZbgHCVMx-3XDfBXsdfAD-17" style="edgeStyle=none;curved=1;rounded=0;orthogonalLoop=1;jettySize=auto;html=1;fontSize=12;startSize=8;endSize=8;" edge="1" parent="1" source="ZbgHCVMx-3XDfBXsdfAD-1" target="ZbgHCVMx-3XDfBXsdfAD-8">
          <mxGeometry relative="1" as="geometry" />
        </mxCell>
        <mxCell id="ZbgHCVMx-3XDfBXsdfAD-18" style="edgeStyle=none;curved=1;rounded=0;orthogonalLoop=1;jettySize=auto;html=1;entryX=0;entryY=0.5;entryDx=0;entryDy=0;fontSize=12;startSize=8;endSize=8;" edge="1" parent="1" source="ZbgHCVMx-3XDfBXsdfAD-1" target="ZbgHCVMx-3XDfBXsdfAD-9">
          <mxGeometry relative="1" as="geometry" />
        </mxCell>
        <mxCell id="ZbgHCVMx-3XDfBXsdfAD-34" style="edgeStyle=none;curved=1;rounded=0;orthogonalLoop=1;jettySize=auto;html=1;fontSize=12;startSize=8;endSize=8;" edge="1" parent="1" source="ZbgHCVMx-3XDfBXsdfAD-1" target="ZbgHCVMx-3XDfBXsdfAD-33">
          <mxGeometry relative="1" as="geometry" />
        </mxCell>
        <object label="Nhân viên" id="ZbgHCVMx-3XDfBXsdfAD-1">
          <mxCell style="shape=umlActor;verticalLabelPosition=bottom;verticalAlign=top;html=1;outlineConnect=0;fontSize=16;" vertex="1" parent="1">
            <mxGeometry x="-79" y="17" width="30" height="60" as="geometry" />
          </mxCell>
        </object>
        <mxCell id="ZbgHCVMx-3XDfBXsdfAD-4" value="Đăng nhập" style="ellipse;whiteSpace=wrap;html=1;fontSize=16;" vertex="1" parent="1">
          <mxGeometry x="144" y="-86" width="120" height="46" as="geometry" />
        </mxCell>
        <mxCell id="ZbgHCVMx-3XDfBXsdfAD-5" value="Quản lý nhà cung cấp" style="ellipse;whiteSpace=wrap;html=1;fontSize=16;" vertex="1" parent="1">
          <mxGeometry x="144" y="-23" width="120" height="44" as="geometry" />
        </mxCell>
        <mxCell id="ZbgHCVMx-3XDfBXsdfAD-6" value="Quản lý khách hàng" style="ellipse;whiteSpace=wrap;html=1;fontSize=16;" vertex="1" parent="1">
          <mxGeometry x="149" y="97" width="120" height="41" as="geometry" />
        </mxCell>
        <mxCell id="ZbgHCVMx-3XDfBXsdfAD-7" value="Quản lý hóa đơn" style="ellipse;whiteSpace=wrap;html=1;fontSize=16;" vertex="1" parent="1">
          <mxGeometry x="144" y="150" width="120" height="40" as="geometry" />
        </mxCell>
        <mxCell id="ZbgHCVMx-3XDfBXsdfAD-8" value="tìm kiếm thông tin sản phẩm" style="ellipse;whiteSpace=wrap;html=1;fontSize=16;" vertex="1" parent="1">
          <mxGeometry x="144" y="203" width="120" height="39" as="geometry" />
        </mxCell>
        <mxCell id="ZbgHCVMx-3XDfBXsdfAD-9" value="thống kê báo cáo" style="ellipse;whiteSpace=wrap;html=1;fontSize=16;" vertex="1" parent="1">
          <mxGeometry x="149" y="257" width="120" height="47" as="geometry" />
        </mxCell>
        <mxCell id="ZbgHCVMx-3XDfBXsdfAD-13" style="edgeStyle=none;curved=1;rounded=0;orthogonalLoop=1;jettySize=auto;html=1;entryX=0.07;entryY=0.752;entryDx=0;entryDy=0;entryPerimeter=0;fontSize=12;startSize=8;endSize=8;" edge="1" parent="1" target="ZbgHCVMx-3XDfBXsdfAD-4">
          <mxGeometry relative="1" as="geometry">
            <mxPoint x="-53" y="41" as="sourcePoint" />
          </mxGeometry>
        </mxCell>
        <mxCell id="ZbgHCVMx-3XDfBXsdfAD-35" style="edgeStyle=none;curved=1;rounded=0;orthogonalLoop=1;jettySize=auto;html=1;entryX=0;entryY=1;entryDx=0;entryDy=0;fontSize=12;startSize=8;endSize=8;" edge="1" parent="1" source="ZbgHCVMx-3XDfBXsdfAD-20" target="ZbgHCVMx-3XDfBXsdfAD-25">
          <mxGeometry relative="1" as="geometry" />
        </mxCell>
        <mxCell id="ZbgHCVMx-3XDfBXsdfAD-36" style="edgeStyle=none;curved=1;rounded=0;orthogonalLoop=1;jettySize=auto;html=1;fontSize=12;startSize=8;endSize=8;" edge="1" parent="1" source="ZbgHCVMx-3XDfBXsdfAD-20" target="ZbgHCVMx-3XDfBXsdfAD-31">
          <mxGeometry relative="1" as="geometry" />
        </mxCell>
        <mxCell id="ZbgHCVMx-3XDfBXsdfAD-37" style="edgeStyle=none;curved=1;rounded=0;orthogonalLoop=1;jettySize=auto;html=1;fontSize=12;startSize=8;endSize=8;" edge="1" parent="1" source="ZbgHCVMx-3XDfBXsdfAD-20" target="ZbgHCVMx-3XDfBXsdfAD-26">
          <mxGeometry relative="1" as="geometry" />
        </mxCell>
        <mxCell id="ZbgHCVMx-3XDfBXsdfAD-38" style="edgeStyle=none;curved=1;rounded=0;orthogonalLoop=1;jettySize=auto;html=1;fontSize=12;startSize=8;endSize=8;" edge="1" parent="1" source="ZbgHCVMx-3XDfBXsdfAD-20">
          <mxGeometry relative="1" as="geometry">
            <mxPoint x="147.60003662109375" y="584.5999450683594" as="targetPoint" />
          </mxGeometry>
        </mxCell>
        <mxCell id="ZbgHCVMx-3XDfBXsdfAD-39" style="edgeStyle=none;curved=1;rounded=0;orthogonalLoop=1;jettySize=auto;html=1;fontSize=12;startSize=8;endSize=8;" edge="1" parent="1" source="ZbgHCVMx-3XDfBXsdfAD-20" target="ZbgHCVMx-3XDfBXsdfAD-27">
          <mxGeometry relative="1" as="geometry" />
        </mxCell>
        <mxCell id="ZbgHCVMx-3XDfBXsdfAD-40" style="edgeStyle=none;curved=1;rounded=0;orthogonalLoop=1;jettySize=auto;html=1;entryX=0.095;entryY=0.285;entryDx=0;entryDy=0;fontSize=12;startSize=8;endSize=8;entryPerimeter=0;" edge="1" parent="1" source="ZbgHCVMx-3XDfBXsdfAD-20" target="ZbgHCVMx-3XDfBXsdfAD-28">
          <mxGeometry relative="1" as="geometry" />
        </mxCell>
        <mxCell id="ZbgHCVMx-3XDfBXsdfAD-41" style="edgeStyle=none;curved=1;rounded=0;orthogonalLoop=1;jettySize=auto;html=1;fontSize=12;startSize=8;endSize=8;entryX=0;entryY=0.5;entryDx=0;entryDy=0;" edge="1" parent="1" source="ZbgHCVMx-3XDfBXsdfAD-20" target="ZbgHCVMx-3XDfBXsdfAD-29">
          <mxGeometry relative="1" as="geometry" />
        </mxCell>
        <mxCell id="ZbgHCVMx-3XDfBXsdfAD-20" value="Quản lý" style="shape=umlActor;verticalLabelPosition=bottom;verticalAlign=top;html=1;outlineConnect=0;fontSize=16;" vertex="1" parent="1">
          <mxGeometry x="-68" y="535" width="30" height="60" as="geometry" />
        </mxCell>
        <mxCell id="ZbgHCVMx-3XDfBXsdfAD-49" style="edgeStyle=none;curved=1;rounded=0;orthogonalLoop=1;jettySize=auto;html=1;entryX=0;entryY=0.5;entryDx=0;entryDy=0;fontSize=12;startSize=8;endSize=8;" edge="1" parent="1" source="ZbgHCVMx-3XDfBXsdfAD-23" target="ZbgHCVMx-3XDfBXsdfAD-45">
          <mxGeometry relative="1" as="geometry" />
        </mxCell>
        <mxCell id="ZbgHCVMx-3XDfBXsdfAD-50" style="edgeStyle=none;curved=1;rounded=0;orthogonalLoop=1;jettySize=auto;html=1;entryX=0;entryY=0.5;entryDx=0;entryDy=0;fontSize=12;startSize=8;endSize=8;" edge="1" parent="1" source="ZbgHCVMx-3XDfBXsdfAD-23" target="ZbgHCVMx-3XDfBXsdfAD-46">
          <mxGeometry relative="1" as="geometry" />
        </mxCell>
        <mxCell id="ZbgHCVMx-3XDfBXsdfAD-51" style="edgeStyle=none;curved=1;rounded=0;orthogonalLoop=1;jettySize=auto;html=1;fontSize=12;startSize=8;endSize=8;" edge="1" parent="1" source="ZbgHCVMx-3XDfBXsdfAD-23" target="ZbgHCVMx-3XDfBXsdfAD-43">
          <mxGeometry relative="1" as="geometry" />
        </mxCell>
        <mxCell id="ZbgHCVMx-3XDfBXsdfAD-52" style="edgeStyle=none;curved=1;rounded=0;orthogonalLoop=1;jettySize=auto;html=1;fontSize=12;startSize=8;endSize=8;" edge="1" parent="1" source="ZbgHCVMx-3XDfBXsdfAD-23" target="ZbgHCVMx-3XDfBXsdfAD-44">
          <mxGeometry relative="1" as="geometry" />
        </mxCell>
        <mxCell id="ZbgHCVMx-3XDfBXsdfAD-23" value="Khách hàng" style="shape=umlActor;verticalLabelPosition=bottom;verticalAlign=top;html=1;outlineConnect=0;fontSize=16;" vertex="1" parent="1">
          <mxGeometry x="-65" y="1056" width="30" height="60" as="geometry" />
        </mxCell>
        <mxCell id="ZbgHCVMx-3XDfBXsdfAD-25" value="Đăng nhập" style="ellipse;whiteSpace=wrap;html=1;fontSize=16;" vertex="1" parent="1">
          <mxGeometry x="149" y="380" width="120" height="46" as="geometry" />
        </mxCell>
        <mxCell id="ZbgHCVMx-3XDfBXsdfAD-26" value="Quản lý nhà cung cấp" style="ellipse;whiteSpace=wrap;html=1;fontSize=16;" vertex="1" parent="1">
          <mxGeometry x="146" y="504" width="120" height="44" as="geometry" />
        </mxCell>
        <mxCell id="ZbgHCVMx-3XDfBXsdfAD-27" value="Quản lý khách hàng" style="ellipse;whiteSpace=wrap;html=1;fontSize=16;" vertex="1" parent="1">
          <mxGeometry x="149" y="622" width="120" height="41" as="geometry" />
        </mxCell>
        <mxCell id="ZbgHCVMx-3XDfBXsdfAD-28" value="Quản lý hóa đơn" style="ellipse;whiteSpace=wrap;html=1;fontSize=16;" vertex="1" parent="1">
          <mxGeometry x="149" y="678" width="120" height="40" as="geometry" />
        </mxCell>
        <mxCell id="ZbgHCVMx-3XDfBXsdfAD-29" value="tìm kiếm thông tin sản phẩm" style="ellipse;whiteSpace=wrap;html=1;fontSize=16;" vertex="1" parent="1">
          <mxGeometry x="149" y="732" width="120" height="39" as="geometry" />
        </mxCell>
        <mxCell id="ZbgHCVMx-3XDfBXsdfAD-30" value="thống kê báo cáo" style="ellipse;whiteSpace=wrap;html=1;fontSize=16;" vertex="1" parent="1">
          <mxGeometry x="149" y="779" width="120" height="47" as="geometry" />
        </mxCell>
        <mxCell id="ZbgHCVMx-3XDfBXsdfAD-31" value="Quản lý nhân viên" style="ellipse;whiteSpace=wrap;html=1;fontSize=16;" vertex="1" parent="1">
          <mxGeometry x="149" y="439" width="120" height="46" as="geometry" />
        </mxCell>
        <mxCell id="ZbgHCVMx-3XDfBXsdfAD-32" value="Quản lý thông tin sản phẩm" style="ellipse;whiteSpace=wrap;html=1;fontSize=16;" vertex="1" parent="1">
          <mxGeometry x="149" y="562" width="120" height="46" as="geometry" />
        </mxCell>
        <mxCell id="ZbgHCVMx-3XDfBXsdfAD-33" value="Quản lý thông tin sản phẩm" style="ellipse;whiteSpace=wrap;html=1;fontSize=16;" vertex="1" parent="1">
          <mxGeometry x="144" y="36" width="120" height="46" as="geometry" />
        </mxCell>
        <mxCell id="ZbgHCVMx-3XDfBXsdfAD-42" style="edgeStyle=none;curved=1;rounded=0;orthogonalLoop=1;jettySize=auto;html=1;entryX=0.042;entryY=0.732;entryDx=0;entryDy=0;entryPerimeter=0;fontSize=12;startSize=8;endSize=8;" edge="1" parent="1" source="ZbgHCVMx-3XDfBXsdfAD-20" target="ZbgHCVMx-3XDfBXsdfAD-30">
          <mxGeometry relative="1" as="geometry" />
        </mxCell>
        <mxCell id="ZbgHCVMx-3XDfBXsdfAD-43" value="Mua hàng" style="ellipse;whiteSpace=wrap;html=1;fontSize=16;" vertex="1" parent="1">
          <mxGeometry x="162" y="1127" width="120" height="41" as="geometry" />
        </mxCell>
        <mxCell id="ZbgHCVMx-3XDfBXsdfAD-44" value="Thanh toán" style="ellipse;whiteSpace=wrap;html=1;fontSize=16;" vertex="1" parent="1">
          <mxGeometry x="162" y="1187" width="120" height="40" as="geometry" />
        </mxCell>
        <mxCell id="ZbgHCVMx-3XDfBXsdfAD-45" value="tìm kiếm thông tin sản phẩm" style="ellipse;whiteSpace=wrap;html=1;fontSize=16;" vertex="1" parent="1">
          <mxGeometry x="162" y="1010" width="120" height="39" as="geometry" />
        </mxCell>
        <mxCell id="ZbgHCVMx-3XDfBXsdfAD-46" value="thống kê báo cáo" style="ellipse;whiteSpace=wrap;html=1;fontSize=16;" vertex="1" parent="1">
          <mxGeometry x="162" y="1066" width="120" height="47" as="geometry" />
        </mxCell>
        <mxCell id="ZbgHCVMx-3XDfBXsdfAD-48" style="edgeStyle=none;curved=1;rounded=0;orthogonalLoop=1;jettySize=auto;html=1;exitX=0.5;exitY=1;exitDx=0;exitDy=0;fontSize=12;startSize=8;endSize=8;" edge="1" parent="1" source="ZbgHCVMx-3XDfBXsdfAD-44" target="ZbgHCVMx-3XDfBXsdfAD-44">
          <mxGeometry relative="1" as="geometry" />
        </mxCell>
      </root>
    </mxGraphModel>
  </diagram>
</mxfile>
